<mxfile host="app.diagrams.net" modified="2024-04-12T11:01:08.191Z" agent="Mozilla/5.0 (Windows NT 10.0; Win64; x64) AppleWebKit/537.36 (KHTML, like Gecko) Chrome/123.0.0.0 Safari/537.36" version="22.1.18" etag="pbVUnWZT7WkoqxNAXv3D" type="github">
  <diagram name="PÃ¡gina-1" id="ipksO4XTOcfQmQ7j_3Pr">
    <mxGraphModel>
      <root>
        <mxCell id="0" />
        <mxCell id="1" parent="0" />
      </root>
    </mxGraphModel>
  </diagram>
</mxfile>
